<?xml version="1.0" encoding="UTF-8" standalone="no"?>
<svg
   xmlns:dc="http://purl.org/dc/elements/1.1/"
   xmlns:cc="http://creativecommons.org/ns#"
   xmlns:rdf="http://www.w3.org/1999/02/22-rdf-syntax-ns#"
   xmlns:svg="http://www.w3.org/2000/svg"
   xmlns="http://www.w3.org/2000/svg"
   viewBox="0 0 282.89334 50.293331"
   height="50.293331"
   width="282.89334"
   xml:space="preserve"
   id="svg2"
   version="1.1"><metadata
     id="metadata8"><rdf:RDF><cc:Work
         rdf:about=""><dc:format>image/svg+xml</dc:format><dc:type
           rdf:resource="http://purl.org/dc/dcmitype/StillImage" /></cc:Work></rdf:RDF></metadata><defs
     id="defs6" /><g
     transform="matrix(1.3333333,0,0,-1.3333333,0,50.293333)"
     id="g10"><g
       transform="scale(0.1)"
       id="g12"><path
         id="path14"
         style="fill:#8ddae6;fill-opacity:1;fill-rule:evenodd;stroke:none"
         d="M 126.781,377.23 H 317.492 V 325.359 H 184.496 C 137.629,325.359 91.5,287.352 81.4922,240.48 71.4883,193.617 101.379,155.605 148.246,155.605 h 132.031 c 10.414,0 17.055,-8.445 14.832,-18.863 -2.226,-10.41 -12.472,-18.855 -22.89,-18.855 H 90.0664 c -31.6836,0 -57.375,25.679 -57.375,57.367 v 107.891 c 0,51.96 42.125,94.085 94.0896,94.085" /><path
         id="path16"
         style="fill:#66cbf4;fill-opacity:1;fill-rule:evenodd;stroke:none"
         d="m 88.7656,117.887 c 63.0314,33.582 122.9024,37.718 191.5114,37.718 10.414,0 17.055,-8.445 14.832,-18.863 -2.226,-10.41 -12.472,-18.855 -22.89,-18.855 H 88.7656" /><path
         id="path18"
         style="fill:#66cbf4;fill-opacity:1;fill-rule:evenodd;stroke:none"
         d="m 148.246,155.605 c -93.4374,0 -115.5546,52.067 -115.5546,127.54 v 34.988 c 0,32.637 26.4609,59.097 59.0977,59.097 H 291.047 L 257.625,325.359 H 184.496 C 137.629,325.359 91.5,287.352 81.4922,240.48 71.4883,193.617 101.379,155.605 148.246,155.605" /><path
         id="path20"
         style="fill:#8ddae6;fill-opacity:1;fill-rule:evenodd;stroke:none"
         d="M 81.4922,240.48 C 91.5,287.352 137.629,325.359 184.496,325.359 h 167.098 58.332 V 377.23 H 261.801 c -27.149,0 -151.016,-12.539 -180.3088,-136.75" /><path
         id="path22"
         style="fill:#66cbf4;fill-opacity:1;fill-rule:evenodd;stroke:none"
         d="m 409.926,325.359 32.695,51.871 H 275.215 c 53.265,-4.183 79.043,-28.476 91.488,-51.871 h 43.223" /><path
         id="path24"
         style="fill:#4663b8;fill-opacity:1;fill-rule:evenodd;stroke:none"
         d="M 315.84,0 H 125.125 v 51.8672 h 132.996 c 46.867,0 92.996,38.0117 103.004,84.8788 10.008,46.867 -19.887,84.875 -66.754,84.875 H 162.344 c -10.418,0 -17.059,8.445 -14.832,18.859 2.222,10.418 12.472,18.864 22.886,18.864 H 409.926 V 94.0859 C 409.926,42.1211 367.801,0 315.84,0" /><path
         id="path26"
         style="fill:#3d579d;fill-opacity:1;fill-rule:evenodd;stroke:none"
         d="m 353.852,259.344 c -63.028,-33.582 -122.903,-37.723 -191.508,-37.723 -10.418,0 -17.059,8.445 -14.832,18.859 2.222,10.418 12.472,18.864 22.886,18.864 h 183.454" /><path
         id="path28"
         style="fill:#3d579d;fill-opacity:1;fill-rule:evenodd;stroke:none"
         d="m 294.371,221.621 c 93.438,0 115.555,-52.062 115.555,-127.5351 V 65.8594 C 409.926,29.4844 380.438,0 344.066,0 H 151.57 l 33.422,51.8672 h 73.129 c 46.867,0 92.996,38.0117 103.004,84.8788 10.008,46.867 -19.887,84.875 -66.754,84.875" /><path
         id="path30"
         style="fill:#4663b8;fill-opacity:1;fill-rule:evenodd;stroke:none"
         d="M 361.125,136.746 C 351.117,89.8789 304.988,51.8672 258.121,51.8672 H 91.0234 32.6914 V 0 H 180.816 c 27.153,0 151.02,12.5391 180.309,136.746" /><path
         id="path32"
         style="fill:#3d579d;fill-opacity:1;fill-rule:evenodd;stroke:none"
         d="M 32.6914,51.8672 -0.00390625,0 H 167.406 C 114.141,4.18359 88.3633,28.4727 75.9141,51.8672 H 32.6914" /><path
         id="path34"
         style="fill:#3d579d;fill-opacity:1;fill-rule:evenodd;stroke:none"
         d="M 2029.33,293.363 V 112.266 h -47.86 v 96.238 l -38.8,-59.5 h -27.43 l -38.8,59.758 v -96.496 h -47.86 v 181.097 h 45.27 l 55.11,-84.859 55.1,84.859 z m -275.01,-90.55 c 0,7.246 -1.04,13.929 -3.11,20.05 -2.06,6.125 -5.08,11.473 -9.05,16.043 -3.96,4.571 -8.96,8.106 -15,10.606 -6.04,2.5 -12.94,3.754 -20.7,3.754 -7.77,0 -14.66,-1.254 -20.7,-3.754 -6.03,-2.5 -11.03,-6.035 -15.01,-10.606 -3.96,-4.57 -6.98,-9.918 -9.05,-16.043 -2.07,-6.121 -3.1,-12.804 -3.1,-20.05 0,-7.243 1.03,-13.926 3.1,-20.051 2.07,-6.117 5.09,-11.465 9.05,-16.039 3.98,-4.571 8.98,-8.106 15.01,-10.606 6.04,-2.5 12.93,-3.75 20.7,-3.75 7.76,0 14.66,1.25 20.7,3.75 6.04,2.5 11.04,6.035 15,10.606 3.97,4.574 6.99,9.922 9.05,16.039 2.07,6.125 3.11,12.808 3.11,20.051 z m -144.87,0 c 0,12.589 2.02,24.578 6.07,35.96 4.05,11.387 10.14,21.43 18.24,30.141 8.11,8.711 18.2,15.609 30.28,20.695 12.07,5.09 26.21,7.637 42.42,7.637 16.21,0 30.36,-2.547 42.43,-7.637 12.07,-5.086 22.17,-11.984 30.27,-20.695 8.11,-8.711 14.18,-18.754 18.24,-30.141 4.05,-11.382 6.08,-23.371 6.08,-35.96 0,-12.59 -2.03,-24.579 -6.08,-35.958 -4.06,-11.386 -10.13,-21.429 -18.24,-30.14 -8.1,-8.711 -18.2,-15.613 -30.27,-20.695 -12.07,-5.09 -26.22,-7.633 -42.43,-7.633 -16.21,0 -30.35,2.543 -42.42,7.633 -12.08,5.082 -22.17,11.984 -30.28,20.695 -8.1,8.711 -14.19,18.754 -18.24,30.14 -4.05,11.379 -6.07,23.368 -6.07,35.958 z m -62.87,28.46 c 0,4.137 -0.74,7.543 -2.2,10.219 -1.47,2.672 -3.5,4.785 -6.09,6.34 -2.57,1.551 -5.51,2.633 -8.79,3.231 -3.28,0.605 -6.72,0.91 -10.35,0.91 h -26.13 v -41.399 h 26.13 c 3.63,0 7.07,0.305 10.35,0.91 3.28,0.602 6.22,1.68 8.79,3.231 2.59,1.555 4.62,3.664 6.09,6.34 1.46,2.668 2.2,6.078 2.2,10.218 z m -29.75,62.09 c 11.21,0 21.6,-0.992 31.17,-2.972 9.57,-1.985 17.89,-5.391 24.96,-10.223 7.07,-4.828 12.64,-11.207 16.69,-19.145 4.05,-7.933 6.09,-17.851 6.09,-29.75 0,-11.898 -2.04,-21.816 -6.09,-29.75 -4.05,-7.933 -9.62,-14.273 -16.69,-19.019 -7.07,-4.742 -15.39,-8.149 -24.96,-10.219 -9.57,-2.066 -19.96,-3.101 -31.17,-3.101 h -23.81 v -56.918 h -47.86 v 181.097 h 71.67 z m -268.8,-181.097 v 181.097 h 162.99 V 112.266 h -47.87 V 250.68 h -67.26 V 112.266 h -47.86 v 0" /><path
         id="path36"
         style="fill:#66cbf4;fill-opacity:1;fill-rule:evenodd;stroke:none"
         d="m 2121.73,11.6484 c 0,-1.5429 -0.23,-2.85934 -0.71,-3.9609 -0.47,-1.08984 -1.12,-1.99609 -1.95,-2.70703 -0.83,-0.71484 -1.8,-1.24609 -2.9,-1.60156 -1.09,-0.35938 -2.26,-0.53125 -3.5,-0.53125 -1.19,0 -2.34,0.17187 -3.43,0.53125 -1.09,0.35547 -2.06,0.88672 -2.89,1.60156 -0.83,0.71094 -1.49,1.61719 -2,2.70703 -0.51,1.10156 -0.76,2.418 -0.76,3.9609 0,1.4805 0.25,2.7696 0.76,3.8672 0.51,1.0977 1.17,2.0039 2,2.7149 0.83,0.7148 1.8,1.2461 2.89,1.6015 1.09,0.3516 2.24,0.5313 3.43,0.5313 1.24,0 2.41,-0.1797 3.5,-0.5313 1.1,-0.3554 2.07,-0.8867 2.9,-1.6015 0.83,-0.711 1.48,-1.6172 1.95,-2.7149 0.48,-1.0976 0.71,-2.3867 0.71,-3.8672 z m -24.28,0 c 0,-1.5429 -0.23,-2.85934 -0.71,-3.9609 -0.47,-1.08984 -1.12,-1.99609 -1.95,-2.70703 -0.83,-0.71484 -1.8,-1.24609 -2.89,-1.60156 -1.1,-0.35938 -2.27,-0.53125 -3.52,-0.53125 -1.18,0 -2.32,0.17187 -3.42,0.53125 -1.1,0.35547 -2.06,0.88672 -2.89,1.60156 -0.83,0.71094 -1.5,1.61719 -2,2.70703 -0.51,1.10156 -0.76,2.418 -0.76,3.9609 0,1.4805 0.25,2.7696 0.76,3.8672 0.5,1.0977 1.17,2.0039 2,2.7149 0.83,0.7148 1.79,1.2461 2.89,1.6015 1.1,0.3516 2.24,0.5313 3.42,0.5313 1.25,0 2.42,-0.1797 3.52,-0.5313 1.09,-0.3554 2.06,-0.8867 2.89,-1.6015 0.83,-0.711 1.48,-1.6172 1.95,-2.7149 0.48,-1.0976 0.71,-2.3867 0.71,-3.8672 z m -24.27,0 c 0,-1.5429 -0.24,-2.85934 -0.72,-3.9609 -0.46,-1.08984 -1.12,-1.99609 -1.95,-2.70703 -0.83,-0.71484 -1.8,-1.24609 -2.89,-1.60156 -1.09,-0.35938 -2.27,-0.53125 -3.52,-0.53125 -1.18,0 -2.32,0.17187 -3.41,0.53125 -1.11,0.35547 -2.06,0.88672 -2.89,1.60156 -0.83,0.71094 -1.51,1.61719 -2.01,2.70703 -0.5,1.10156 -0.76,2.418 -0.76,3.9609 0,1.4805 0.26,2.7696 0.76,3.8672 0.5,1.0977 1.18,2.0039 2.01,2.7149 0.83,0.7148 1.78,1.2461 2.89,1.6015 1.09,0.3516 2.23,0.5313 3.41,0.5313 1.25,0 2.43,-0.1797 3.52,-0.5313 1.09,-0.3554 2.06,-0.8867 2.89,-1.6015 0.83,-0.711 1.49,-1.6172 1.95,-2.7149 0.48,-1.0976 0.72,-2.3867 0.72,-3.8672 z m -43.85,54.7813 V 52.1992 h -28.37 v -9.5156 h 25.7 V 28.5508 h -25.7 V 18.4063 h 28.91 V 4.17969 h -45.36 V 66.4297 h 44.82 z M 1956.32,4.17969 V 25.3477 c -5.15,-1.543 -9.96,-2.3164 -14.4,-2.3164 -3.39,0 -6.47,0.4296 -9.26,1.2929 -2.78,0.8594 -5.17,2.1719 -7.16,3.9571 -1.98,1.7773 -3.52,4.0117 -4.62,6.7109 -1.09,2.6953 -1.65,5.8867 -1.65,9.5625 v 21.875 h 16.46 V 45.4414 c 0,-2.5469 0.99,-4.4453 2.98,-5.6914 1.99,-1.2461 4.46,-1.8633 7.43,-1.8633 3.31,0 6.73,0.711 10.22,2.1328 v 26.4102 h 16.45 V 4.17969 h -16.45 z m -86.09,0 V 66.4297 h 44.91 V 51.7578 h -28.46 V 4.17969 h -16.45 z M 1860.18,66.4297 V 52.1992 h -28.37 v -9.5156 h 25.7 V 28.5508 h -25.7 V 18.4063 h 28.91 V 4.17969 h -45.36 V 66.4297 h 44.82 z m -56.55,0 V 4.17969 h -16.46 V 51.7578 h -13.43 c -0.48,-6.4023 -1.1,-12.5117 -1.86,-18.3203 -0.78,-5.8125 -1.97,-10.9375 -3.61,-15.3867 -1.63,-4.4492 -3.83,-8.0039 -6.63,-10.66799 -2.78,-2.67187 -6.39,-4.0039 -10.85,-4.0039 -1.18,0 -2.41,0.09375 -3.69,0.26562 -1.27,0.17578 -2.59,0.50391 -3.95,0.97656 V 18.9453 c 1.31,-0.418 2.72,-0.539 4.27,-0.3555 1.66,0.1719 3.06,1.0469 4.22,2.6211 1.16,1.5704 2.1,3.5977 2.85,6.0938 0.74,2.4844 1.33,5.332 1.77,8.5351 0.45,3.2032 0.82,6.5508 1.12,10.0469 0.3,3.4961 0.53,7.0117 0.71,10.543 0.17,3.5234 0.38,6.8594 0.62,10 h 44.92 z M 1718.07,4.17969 V 66.4297 h -15.57 l -24.36,-35.7461 c 0.11,1.4766 0.2,3.1367 0.26,4.9727 0.06,1.8437 0.09,3.621 0.09,5.3398 v 25.4336 h -16.45 V 4.17969 h 15.56 l 24.38,35.66011 c -0.13,-1.4804 -0.22,-3.125 -0.28,-4.9375 -0.06,-1.8085 -0.09,-3.5703 -0.09,-5.289 V 4.17969 h 16.46 z M 1650.31,66.4297 V 4.17969 h -16.46 V 37.2617 l -13.34,-20.457 h -9.43 l -13.34,20.5469 V 4.17969 h -16.45 V 66.4297 h 15.56 l 18.94,-29.168 18.95,29.168 h 15.57 z m -116.33,-39.125 h 16 l -6.39,17.957 c -0.31,0.7774 -0.57,1.6016 -0.81,2.4961 -0.24,0.8867 -0.5,2.1641 -0.79,3.8242 -0.31,-1.6601 -0.57,-2.9375 -0.81,-3.8242 -0.24,-0.8945 -0.5,-1.7187 -0.8,-2.4961 l -6.4,-17.957 z m -25.34,-23.12501 24.45,62.25001 h 17.78 l 24.46,-62.25001 h -16.9 l -3.55,9.78511 h -25.8 l -3.55,-9.78511 h -16.89 z m -5.97,62.25001 V 4.17969 h -16.45 V 27.9258 H 1463.1 V 4.17969 h -16.46 V 66.4297 h 16.46 v -23.832 h 23.12 v 23.832 h 16.45 z M 1366.87,34.418 c 0,5.8672 0.96,10.9062 2.89,15.1172 1.93,4.207 4.48,7.6601 7.66,10.3593 3.16,2.6993 6.76,4.6836 10.8,5.9571 4.03,1.2773 8.15,1.9101 12.36,1.9101 3.2,0 6.33,-0.3203 9.38,-0.9765 3.05,-0.6485 5.94,-1.6289 8.68,-2.9336 V 48.2891 c -1.91,1.6015 -4.2,2.8476 -6.9,3.7343 -2.7,0.8907 -5.47,1.336 -8.32,1.336 -2.49,0 -4.9,-0.3555 -7.25,-1.0703 -2.34,-0.7071 -4.43,-1.8203 -6.26,-3.3282 -1.84,-1.5156 -3.33,-3.4726 -4.45,-5.8711 -1.13,-2.4023 -1.69,-5.2929 -1.69,-8.6718 0,-3.0274 0.56,-5.6211 1.69,-7.7813 1.12,-2.164 2.59,-3.9258 4.4,-5.2929 1.81,-1.3633 3.88,-2.3711 6.23,-3.0235 2.34,-0.6484 4.72,-0.9805 7.16,-0.9805 3.2,0 6.2,0.4766 8.98,1.4219 2.78,0.9492 5.07,2.2813 6.85,4 V 6.75781 c -5.52,-2.60937 -11.57,-3.91015 -18.15,-3.91015 -4.27,0 -8.45,0.60156 -12.54,1.82031 -4.09,1.21484 -7.72,3.09766 -10.89,5.64843 -3.17,2.5469 -5.74,5.8125 -7.69,9.7813 -1.96,3.9726 -2.94,8.7461 -2.94,14.3203 v 0" /><path
         id="path38"
         style="fill:#66cbf4;fill-opacity:1;fill-rule:evenodd;stroke:none"
         d="m 1114.78,339.199 h 47.86 l -15.02,-45.836 h -32.84 v 45.836" /><path
         id="path40"
         style="fill:#66cbf4;fill-opacity:1;fill-rule:nonzero;stroke:none"
         d="M 721.551,293.363 H 673.688 V 112.266 h 47.863 v 181.097" /><path
         id="path42"
         style="fill:#66cbf4;fill-opacity:1;fill-rule:nonzero;stroke:none"
         d="m 601.25,150.555 c -7.07,0 -14.016,0.949 -20.828,2.847 -6.813,1.895 -12.848,4.828 -18.109,8.793 -5.258,3.973 -9.532,9.102 -12.809,15.399 -3.277,6.293 -4.91,13.836 -4.91,22.633 0,9.832 1.633,18.238 4.91,25.226 3.277,6.981 7.594,12.676 12.941,17.074 5.348,4.395 11.426,7.633 18.239,9.703 6.808,2.067 13.839,3.106 21.082,3.106 8.277,0 16.343,-1.301 24.187,-3.883 7.848,-2.586 14.531,-6.211 20.051,-10.867 v 45.277 c -7.934,3.793 -16.344,6.637 -25.227,8.535 -8.879,1.899 -17.976,2.848 -27.289,2.848 -12.246,0 -24.238,-1.855 -35.961,-5.562 -11.726,-3.711 -22.207,-9.489 -31.433,-17.336 -9.231,-7.844 -16.645,-17.895 -22.254,-30.141 -5.606,-12.246 -8.402,-26.902 -8.402,-43.98 0,-16.215 2.839,-30.094 8.535,-41.653 5.691,-11.554 13.148,-21.043 22.379,-28.457 9.226,-7.418 19.793,-12.89 31.695,-16.426 11.898,-3.535 24.055,-5.304 36.476,-5.304 19.141,0 36.735,3.793 52.774,11.383 v 46.566 c -5.168,-5 -11.813,-8.883 -19.922,-11.641 -8.102,-2.757 -16.812,-4.14 -26.125,-4.14" /><path
         id="path44"
         style="fill:#66cbf4;fill-opacity:1;fill-rule:nonzero;stroke:none"
         d="m 1168.61,293.363 -70.89,-104 c 0.34,4.309 0.6,9.141 0.77,14.489 0.17,5.347 0.26,10.515 0.26,15.523 v 73.988 h -47.86 V 112.266 h 45.27 l 70.89,103.738 c -0.35,-4.305 -0.6,-9.09 -0.78,-14.356 -0.17,-5.257 -0.25,-10.39 -0.25,-15.394 v -73.988 h 47.86 v 181.097 h -45.27" /><path
         id="path46"
         style="fill:#66cbf4;fill-opacity:1;fill-rule:nonzero;stroke:none"
         d="m 919.602,179.531 18.625,52.262 c 0.863,2.238 1.64,4.656 2.328,7.242 0.687,2.586 1.468,6.297 2.328,11.125 0.867,-4.828 1.64,-8.539 2.332,-11.125 0.687,-2.586 1.465,-5.004 2.328,-7.242 l 18.629,-52.262 z m -2.586,113.832 -70.559,-179.593 0.965,-1.504 h 47.601 l 10.344,28.461 h 75.031 l 10.348,-28.461 h 49.154 l -71.146,181.097 h -51.738" /><path
         id="path48"
         style="fill:#66cbf4;fill-opacity:1;fill-rule:nonzero;stroke:none"
         d="m 838.484,293.363 h -53.031 l -54.336,-90.55 56.922,-90.547 h 51.481 l 0.589,1.504 -58.539,91.371 56.914,88.222" /></g></g></svg>